:SAMPLES-PER-SECOND 30
:FRAME-RANGE 1-2643
:FULLY-SPECIFIED
:DEGREES
496
root  -10.6795 36.0072 99.9903 -151.697 -70.9556 155.11
RightUpLeg  -18.4103 0.467605 6.67288
RightLeg  41.1863 -8.76287 -8.40557
RightFoot  -25.9096 -1.44895 -9.93445
RightToes  5.38607e-012 1.2921e-014 -6.02303e-014
Spine  8.28797 -2.78675 -3.6824
Spine1  6.75526 -3.91089 2.76812
HEad  49.5719 -30.2281 7.25234
LeftShoulder1  1.42921 -3.18562 -15.4621
LeftArm  -2.87723 -10.4021 -47.7636
LeftForeArm  37.2616 0.342895 -11.9461
LeftHand  -0.046399 4.19132 2.50114
RightShoulder  1.33728 1.07495 24.3702
RightArm  -34.7864 6.31511 43.0073
RightForeArm  46.0892 -5.09817 -2.22096
RightHand  -0.425607 -1.54396 -12.7254
LeftUpLeg  -31.1264 -5.89246 4.2188
LeftLeg  49.0788 6.19171 8.04269
LeftFoot  -15.12 -0.206944 -9.00058
LeftToes  -4.79707e-012 -5.93756e-011 -7.55542e-012
497
root  -12.8957 36.6162 99.2261 -152.581 -68.6518 157.395
RightUpLeg  -14.0519 3.21296 6.15009
RightLeg  37.5816 -8.80973 -7.4673
RightFoot  -24.6338 -1.10199 -8.0111
RightToes  5.38607e-012 1.2921e-014 -6.02303e-014
Spine  7.38241 -2.37433 -3.95745
Spine1  6.71396 -3.37868 2.24153
HEad  49.5587 -29.6889 6.96636
LeftShoulder1  1.35019 -2.68665 -16.0228
LeftArm  -0.57321 -3.83923 -45.8444
LeftForeArm  39.0873 -0.341146 -12.6935
LeftHand  -0.0372864 4.56817 2.02445
RightShoulder  1.28185 0.837781 24.7898
RightArm  -34.2654 6.59639 44.7196
RightForeArm  47.315 -5.14476 -1.77636
RightHand  -0.489809 -1.11904 -13.2474
LeftUpLeg  -33.9864 -7.19777 4.52379
LeftLeg  35.9707 6.60122 5.48951
LeftFoot  -12.5575 -0.0320749 -10.074
LeftToes  -4.79707e-012 -5.93756e-011 -7.55542e-012
498
root  -15.1799 37.1039 98.4513 -153.398 -65.958 159.597
RightUpLeg  -11.1786 4.43564 5.16659
RightLeg  36.5016 -6.76454 -5.60439
RightFoot  -22.3217 -0.746353 -6.1872
RightToes  5.38607e-012 1.2921e-014 -6.02303e-014
Spine  6.30508 -1.87254 -3.85239
Spine1  6.87785 -2.58896 1.11024
HEad  48.5868 -29.4826 6.52836
LeftShoulder1  1.22092 -1.95189 -16.7718
LeftArm  1.83253 2.68098 -44.0479
LeftForeArm  37.4781 -2.07549 -13.0798
LeftHand  -0.0347319 4.68906 1.81301
RightShoulder  1.30602 0.935642 24.6434
RightArm  -34.1378 6.34235 46.6068
RightForeArm  48.3118 -4.44703 -1.43976
RightHand  -0.568815 -0.628419 -13.8503
LeftUpLeg  -35.5231 -8.41002 4.82463
LeftLeg  22.6032 6.43199 3.2674
LeftFoot  -11.6851 0.0350091 -11.5662
LeftToes  -4.79707e-012 -5.93756e-011 -7.55542e-012
499
root  -17.5184 37.4163 97.6532 -155.699 -63.2065 162.649
RightUpLeg  -9.53464 4.88428 4.32587
RightLeg  38.7991 -3.83645 -3.57362
RightFoot  -19.1693 -0.762426 -9.2285
RightToes  5.38607e-012 1.2921e-014 -6.02303e-014
Spine  5.67899 -1.24752 -3.18038
Spine1  6.9972 -1.73023 0.220137
HEad  46.8808 -29.5182 5.67291
LeftShoulder1  1.04183 -1.02373 -17.6816
LeftArm  3.16138 7.58066 -42.4172
LeftForeArm  36.2783 -3.07453 -13.1368
LeftHand  -0.03628 4.15577 1.40197
RightShoulder  1.453 1.48608 24.1746
RightArm  -33.7497 6.16105 47.862
RightForeArm  48.4545 -3.574 -1.00873
RightHand  -0.616635 -0.474413 -14.5548
LeftUpLeg  -35.6734 -5.65883 3.33882
LeftLeg  12.7021 2.01835 2.00884
LeftFoot  -12.364 -0.056732 -14.5542
LeftToes  -4.79707e-012 -5.93756e-011 -7.55542e-012
500
root  -19.8806 37.3165 96.8623 -158.665 -60.4377 165.425
RightUpLeg  -10.0702 5.13032 3.4192
RightLeg  46.8708 -0.700332 -1.128
RightFoot  -15.3262 -0.690837 -16.7605
RightToes  5.38607e-012 1.2921e-014 -6.02303e-014
Spine  5.1815 -0.543419 -2.5436
Spine1  7.721 -0.827712 -0.492395
HEad  44.1337 -30.2169 4.75468
LeftShoulder1  0.875861 -0.280314 -18.0684
LeftArm  5.61058 10.2743 -41.578
LeftForeArm  36.5297 -4.35755 -13.2024
LeftHand  -0.0326068 4.51926 1.21908
RightShoulder  1.37647 1.20968 24.3318
RightArm  -33.5709 6.45053 48.5973
RightForeArm  50.1418 -3.28401 -0.85966
RightHand  -0.591808 -0.853108 -15.0984
LeftUpLeg  -35.5782 -3.53503 2.17207
LeftLeg  10.1033 0.340787 1.57509
LeftFoot  -13.382 -0.188652 -15.0013
LeftToes  -4.79707e-012 -5.93756e-011 -7.55542e-012
501
root  -22.2453 36.6882 96.053 -161.382 -58.3746 167.214
RightUpLeg  -11.9879 4.46562 2.37809
RightLeg  58.5272 1.30134 1.8297
RightFoot  -10.8327 0.0181859 -20.1873
RightToes  5.38607e-012 1.2921e-014 -6.02303e-014
Spine  5.51 -0.249333 -2.38453
Spine1  7.58084 -0.516689 -0.718292
HEad  40.6765 -31.257 4.28351
LeftShoulder1  0.728265 0.248187 -17.4104
LeftArm  6.1408 11.2831 -41.4526
LeftForeArm  37.3107 -4.56721 -13.1872
LeftHand  -0.0303379 4.74579 0.980932
RightShoulder  1.43955 1.44201 24.1706
RightArm  -33.2446 5.81548 48.8638
RightForeArm  51.3046 -3.41396 -0.655783
RightHand  -0.546549 -1.28231 -15.3566
LeftUpLeg  -35.5787 -4.61409 2.3094
LeftLeg  14.074 3.10553 1.68532
LeftFoot  -15.0803 -0.389591 -14.6253
LeftToes  -4.79707e-012 -5.93756e-011 -7.55542e-012
502
root  -24.2775 35.7249 95.2826 -163.002 -56.4985 166.946
RightUpLeg  -14.4779 3.68781 0.760266
RightLeg  70.4953 0.76945 1.60229
RightFoot  -7.94015 0.273567 -10.97
RightToes  5.38607e-012 1.2921e-014 -6.02303e-014
Spine  7.66876 -0.280428 -4.72372
Spine1  6.78876 -0.737029 -0.970566
HEad  36.6882 -32.2124 4.29567
LeftShoulder1  0.772579 -0.0283377 -16.7093
LeftArm  6.17894 11.4325 -40.7745
LeftForeArm  36.6601 -4.91721 -13.0891
LeftHand  -0.0318945 4.54816 1.12996
RightShoulder  1.45226 1.47524 24.2306
RightArm  -33.6586 4.71117 48.9599
RightForeArm  52.2842 -3.5305 -0.826826
RightHand  -0.541297 -1.33949 -15.4175
LeftUpLeg  -37.0817 -6.20727 2.5349
LeftLeg  23.535 2.56354 1.56722
LeftFoot  -3.17828 1.33626 -18.326
LeftToes  -4.79707e-012 -5.93756e-011 -7.55542e-012
